<svg width="85" height="43" xmlns="http://www.w3.org/2000/svg" xmlns:xlink="http://www.w3.org/1999/xlink" xml:space="preserve" overflow="hidden"><g transform="matrix(1 0 0 1 0 -6)"><path d="M0.944108 17.6491 6.25323 17.6491 6.25323 28.6901C7.59002 28.7113 8.81448 28.1739 9.92509 27.0786 11.0357 25.9828 11.7782 24.6624 12.1527 23.1154 12.1719 23.0081 12.192 22.9008 12.2117 22.7931 12.2309 22.6856 12.2406 22.5676 12.2406 22.4388 12.2796 22.2233 12.3045 22.0034 12.3147 21.7781 12.3243 21.553 12.3291 21.3545 12.3291 21.1821 12.3291 19.9145 12.0347 18.9214 11.4445 18.2007 10.8549 17.4814 10.0677 17.1217 9.08538 17.1217L0 17.0896 1.12127 12.095 9.64507 12.095C12.1232 12.1165 14.0842 12.7875 15.5294 14.1086 16.9747 15.4305 17.7461 17.5301 17.8447 20.4085L17.8447 20.8275C17.8447 21.193 17.8304 21.553 17.8003 21.9071 17.771 22.2611 17.727 22.6221 17.6682 22.9863 17.2552 25.5212 16.0854 27.8738 14.158 30.0432 12.2307 32.213 9.53637 33.416 6.07642 33.6516L0.94428 33.6202 0.94428 17.6491 0.944108 17.6491Z" fill="#094684" transform="matrix(1.00805 0 0 1 0.020827 6)"/><path d="M67.3789 17.6491 72.6881 17.6491 72.6881 28.6901C74.0242 28.7113 75.2491 28.1739 76.3599 27.0786 77.4705 25.9828 78.2129 24.6624 78.5872 23.1154 78.6069 23.0081 78.6267 22.9008 78.6463 22.7931 78.6657 22.6856 78.6756 22.5676 78.6756 22.4388 78.7146 22.2233 78.7389 22.0034 78.7495 21.7781 78.7591 21.553 78.7643 21.3545 78.7643 21.1821 78.7643 19.9145 78.4693 18.9214 77.8795 18.2007 77.2897 17.4814 76.5027 17.1217 75.5202 17.1217L66.4353 17.0894 67.5563 12.095 76.0802 12.095C78.5586 12.1164 80.5197 12.7875 81.9649 14.1086 83.4104 15.4305 84.1816 17.5301 84.2802 20.4085L84.2802 20.8275C84.2802 21.193 84.2655 21.553 84.2356 21.9071 84.206 22.2614 84.1624 22.6221 84.1034 22.9864 83.6904 25.5215 82.5203 27.8741 80.5932 30.0434 78.6661 32.2134 75.9721 33.4163 72.5118 33.652L67.3796 33.6205 67.3796 17.6491 67.3789 17.6491 67.3789 17.6491Z" fill="#DC082C" transform="matrix(1.00805 0 0 1 0.020827 6)"/><path d="M20.5781 18.7339C21.6345 17.8103 23.3686 17.3484 25.7811 17.3484 26.1 17.3484 26.5338 17.3598 27.0817 17.3808 27.6299 17.4023 28.193 17.4884 28.7716 17.6386 29.6487 17.8318 30.4858 18.183 31.1936 18.7986 32.7488 20.15 32.583 22.6811 31.7044 24.4689 31.062 25.7754 30.2467 26.585 29.6086 27.208 29.0902 27.7023 28.5964 28.0993 28.1287 28.4001 27.6602 28.7004 27.3162 28.8945 27.0969 28.9801 27.2763 29.1523 27.5243 29.2649 27.8447 29.3023 29.757 29.5235 31.552 29.3341 31.552 29.3341L30.147 33.6518 29.8675 33.6518C26.2878 33.6518 23.0014 32.8735 21.2212 30.6884 19.6108 28.7108 18.8137 26.7711 18.8137 23.5511 18.8139 21.4063 19.5213 19.6581 20.5781 18.7339ZM24.1223 25.8972C25.688 24.9969 26.2893 24.3267 26.5088 24.1018 27.0219 23.5781 27.455 23.1737 27.3533 22.3136 27.1834 20.8768 24.2993 21.4257 23.8447 22.8739 23.5315 23.8717 23.8617 25.5 24.1223 25.8972L24.1223 25.8972Z" fill="#094684" transform="matrix(1.00805 0 0 1 0.020827 6)"/><path d="M51.8788 12.0952 66.4223 12.0952 65.2332 17.0975 57.2208 17.0975 57.2208 20.1954 64.4615 20.1954 63.3333 25.1646 57.2208 25.1646 57.2208 28.7151 65.7971 28.7151 64.6397 33.6521 51.879 33.6521 51.879 12.0952 51.8788 12.0952Z" fill="#DC082C" transform="matrix(1.00805 0 0 1 0.020827 6)"/><path d="M33.1226 17.7611 44.6001 17.7611 44.6001 21.1366 33.1226 21.1366Z" fill="#094684" transform="matrix(1.00805 0 0 1 0.020827 6)"/><path d="M42.6182 21.8117 37.4525 21.8117 38.2341 41.7539 37.6463 41.7539 36.8642 21.8117 35.1055 21.8117C35.1055 21.8117 37.071 32.9659 37.1861 42.1692L40.5361 42.1692C40.652 32.9657 42.6182 21.8117 42.6182 21.8117Z" fill="#094684" transform="matrix(1.00805 0 0 1 0.020827 6)"/><path d="M37.1922 43 40.5304 43C40.5304 42.8624 40.5316 42.7239 40.5323 42.585L37.1905 42.585C37.1912 42.7239 37.1922 42.8624 37.1922 43Z" fill="#094684" transform="matrix(1.00805 0 0 1 0.020827 6)"/><path d="M34.8878 4.91628C34.8878 4.91628 36.2437 5.43572 35.8267 6.82032 35.4819 7.96343 34.1227 9.52072 33.3229 11.5981 32.5226 13.6755 33.1833 15.7528 34.679 16.8261L42.6445 16.8261C44.4532 14.5414 45.0788 12.464 44.8007 10.3518 44.4801 7.91922 41.8789 5.05456 40.835 4.01568 39.6639 2.8497 37.7397 1.21174 38.9222 0 38.9222 0 37.4876 0.732032 37.3572 2.35434 37.1482 4.95068 40.2334 6.24893 39.4436 8.79367 38.7136 11.1482 34.992 11.7018 36.1398 14.8178 36.1398 14.8178 34.1926 13.6752 36.07 11.2519 37.0798 9.94968 37.8617 9.08659 38.1226 8.10137 38.6436 6.12784 36.7311 4.70833 34.8878 4.91628Z" fill="#DC082C" transform="matrix(1.00805 0 0 1 0.020827 6)"/><path d="M40.2437 8.23949C40.2437 8.23949 40.5124 9.78904 38.3803 11.3554 36.3709 12.8317 36.3833 14.2554 36.894 15.2977 36.894 15.2977 36.417 13.5302 38.3312 12.2564 39.9312 11.1914 41.2616 10.2042 40.2437 8.23949Z" fill="#F0B50D" transform="matrix(1.00805 0 0 1 0.020827 6)"/><path d="M47.063 17.7611 45.2525 17.7611 45.2525 21.1904C46.0712 21.3504 46.2616 21.8846 46.2616 23.0059L46.2616 27.9049C46.2616 29.282 45.9758 29.7746 44.592 29.7746L43.0795 29.7746 43.0795 33.9115 47.0632 33.9115C48.4462 33.9115 50.1932 32.4058 50.1932 30.5883L50.1932 21.0843C50.1929 19.4487 48.7656 17.7611 47.063 17.7611Z" fill="#094684" transform="matrix(1.00805 0 0 1 0.020827 6)"/><path d="M1.2138 39.4743C1.2138 38.9864 1.20899 38.9159 0.96922 38.8949L0.861376 38.8851C0.826116 38.8598 0.826116 38.7681 0.865676 38.7439 1.23393 38.7126 1.64243 38.6972 2.14278 38.6972 2.6285 38.6972 2.97543 38.7373 3.34781 38.8699 3.96064 39.0935 4.39512 39.6324 4.39512 40.389 4.39512 40.9537 4.11321 41.5323 3.48094 41.854 3.11767 42.0365 2.67942 42.0973 2.2133 42.0973 1.90301 42.0973 1.66238 42.0671 1.47318 42.0671 1.27968 42.0671 1.05006 42.0717 0.825944 42.082 0.784664 42.0616 0.778988 41.9702 0.81528 41.9352L0.92708 41.9192C1.16702 41.8892 1.21363 41.8739 1.21363 41.3349L1.2138 39.4743 1.2138 39.4743ZM1.806 41.1362C1.806 41.6292 1.84178 41.8932 2.38375 41.8932 3.29174 41.8932 3.70006 41.2533 3.70006 40.3944 3.70006 39.3882 3.11337 38.9006 2.25991 38.9006 2.04628 38.9006 1.88237 38.9411 1.84676 38.9716 1.81099 39.0024 1.806 39.1083 1.806 39.3476L1.806 41.1362Z" fill="#094684" transform="matrix(1.00805 0 0 1 0.020827 6)"/><path d="M5.21642 39.4437C5.21642 38.9055 5.17032 38.8851 4.93107 38.8551L4.84851 38.8443C4.81308 38.8094 4.81892 38.7174 4.85866 38.6971 5.05284 38.7074 5.29399 38.7126 5.51759 38.7126L6.493 38.7126C6.82014 38.7126 7.11547 38.7074 7.18238 38.6971 7.2025 38.7834 7.23346 39.1849 7.2639 39.4033 7.24378 39.4436 7.1411 39.4542 7.10016 39.4238 7.01898 39.1291 6.94226 39.0068 6.77886 38.9614 6.6619 38.9305 6.50779 38.9155 6.37036 38.9155L6.02826 38.9155C5.80896 38.9155 5.80896 38.9255 5.80896 39.2151L5.80896 40.0746C5.80896 40.2062 5.81377 40.2115 5.93125 40.2115L6.17652 40.2115C6.6208 40.2115 6.69682 40.2062 6.74309 39.9876L6.77869 39.8149C6.81997 39.7795 6.91629 39.7795 6.94209 39.8195 6.93693 39.9577 6.92678 40.14 6.92678 40.328 6.92678 40.5211 6.93676 40.6992 6.94209 40.8619 6.91629 40.8975 6.82014 40.8975 6.77869 40.867L6.74309 40.6639C6.70714 40.4501 6.62062 40.4393 6.17652 40.4393L5.93125 40.4393C5.81377 40.4393 5.80896 40.4501 5.80896 40.5769L5.80896 41.2222C5.80896 41.4819 5.81928 41.6644 5.89547 41.7508 5.95653 41.822 6.04356 41.8567 6.47288 41.8629 7.12114 41.8681 7.23329 41.7257 7.41165 41.3141 7.45809 41.2783 7.54478 41.2936 7.57488 41.3443 7.54478 41.5586 7.43246 41.9437 7.36057 42.0812 7.13559 42.0709 6.69665 42.066 6.09946 42.066L5.51759 42.066C5.29399 42.066 4.98215 42.0707 4.75184 42.0812 4.71108 42.0605 4.70609 41.9692 4.74135 41.9341L4.93107 41.9137C5.17049 41.8884 5.21659 41.8731 5.21659 41.334L5.21642 39.4437 5.21642 39.4437Z" fill="#094684" transform="matrix(1.00805 0 0 1 0.020827 6)"/><path d="M8.17757 39.4743C8.17757 39.012 8.17275 38.9308 7.95827 38.9054L7.7799 38.8851C7.74413 38.8495 7.74413 38.7633 7.78386 38.7437 8.14214 38.7022 8.4483 38.6971 8.91218 38.6971 9.39791 38.6971 9.74999 38.7683 9.97996 38.9009 10.2455 39.0581 10.4134 39.3278 10.4134 39.6627 10.4134 40.4353 9.6738 40.6488 9.2708 40.6488 9.22453 40.6488 9.18377 40.6488 9.14232 40.6438 9.10723 40.6128 9.10069 40.5469 9.12752 40.5163 9.59192 40.4252 9.75997 40.0896 9.75997 39.6728 9.75997 39.2616 9.49509 38.9011 9.03086 38.9011 8.77578 38.9011 8.76994 38.9162 8.76994 39.1143L8.76994 41.3347C8.76994 41.8737 8.81603 41.8891 9.05632 41.9143L9.24534 41.9346C9.2751 41.9699 9.27097 42.0612 9.2352 42.0819 8.93351 42.0714 8.7032 42.0667 8.47908 42.0667 8.25428 42.0667 8.02397 42.0714 7.82032 42.0819 7.7799 42.0612 7.77423 41.9699 7.81052 41.9346L7.89188 41.9241C8.13216 41.8934 8.17791 41.8736 8.17791 41.3345L8.17757 39.4743 8.17757 39.4743Z" fill="#094684" transform="matrix(1.00805 0 0 1 0.020827 6)"/><path d="M11.2509 40.8216C11.1179 40.8216 11.1229 40.8216 11.077 40.9589L10.8682 41.5688C10.7658 41.8686 10.7858 41.8782 10.975 41.9083L11.1229 41.9345C11.1588 41.9694 11.1539 42.0609 11.1129 42.0817 10.9497 42.0712 10.7813 42.0712 10.5718 42.0664 10.4029 42.0664 10.2455 42.0709 10.0661 42.0817 10.031 42.0559 10.0252 41.9792 10.0613 41.9345L10.2147 41.9083C10.3623 41.8837 10.4186 41.8428 10.4946 41.6753 10.556 41.5433 10.6373 41.3299 10.7454 41.0552L11.4447 39.2456C11.5058 39.0836 11.5574 38.962 11.5415 38.8749 11.7197 38.8397 11.889 38.6314 11.899 38.6314 11.9396 38.6314 11.9654 38.6467 11.9855 38.6718 12.0679 38.9009 12.1337 39.1396 12.2156 39.3682L12.9511 41.4979C13.0679 41.838 13.0937 41.8689 13.3543 41.9188L13.4306 41.9348C13.4712 41.9697 13.4712 42.0562 13.4356 42.082 13.2266 42.0715 13.0373 42.0667 12.7722 42.0667 12.5529 42.0667 12.3274 42.0765 12.1492 42.082 12.1086 42.0562 12.1031 41.9649 12.1336 41.9348L12.2462 41.9188C12.4301 41.8935 12.4554 41.8636 12.3792 41.65L12.1391 40.9589C12.0931 40.8216 12.0729 40.8216 11.9296 40.8216L11.2509 40.8216 11.2509 40.8216ZM11.863 40.5923C12.0061 40.5923 12.0269 40.5831 11.9855 40.4609L11.7715 39.8505C11.68 39.5808 11.6539 39.4845 11.6284 39.4492L11.6184 39.4492C11.5978 39.4843 11.5515 39.6113 11.465 39.8505L11.2507 40.4453C11.2 40.5922 11.2091 40.5922 11.332 40.5922L11.863 40.5922 11.863 40.5923Z" fill="#094684" transform="matrix(1.00805 0 0 1 0.020827 6)"/><path d="M13.9968 39.4743C13.9968 38.9864 13.9922 38.9257 13.7526 38.9007L13.6196 38.8851C13.5839 38.8495 13.5839 38.7679 13.6248 38.7437 13.9454 38.7124 14.3797 38.6971 14.7982 38.6971 15.1965 38.6971 15.5438 38.7482 15.7684 38.8698 16.0295 39.007 16.2177 39.2456 16.2177 39.6118 16.2177 40.0793 15.8555 40.3132 15.6052 40.4147 15.5748 40.43 15.5849 40.4711 15.6052 40.5015 16.0137 41.1871 16.269 41.6187 16.5089 41.8168 16.6517 41.9391 16.8004 41.9697 16.8612 41.9751 16.887 41.9953 16.887 42.0512 16.8713 42.0762 16.8106 42.0918 16.7131 42.1063 16.5347 42.1063 16.0442 42.1063 15.7788 41.9083 15.4673 41.4358 15.3292 41.2224 15.1866 40.9431 15.0638 40.7447 14.9726 40.5923 14.9157 40.5727 14.7476 40.5727 14.5945 40.5727 14.5897 40.577 14.5897 40.684L14.5897 41.3344C14.5897 41.8734 14.635 41.8887 14.8749 41.9185L14.9884 41.9343C15.023 41.9696 15.0182 42.0609 14.9778 42.0815 14.7528 42.071 14.5232 42.0664 14.299 42.0664 14.0741 42.0664 13.8438 42.071 13.6092 42.0815 13.568 42.0609 13.5524 41.9696 13.5992 41.9343L13.7112 41.9185C13.9518 41.8885 13.9968 41.8732 13.9968 41.3344L13.9968 39.4743ZM14.5899 40.2066C14.5899 40.3689 14.5899 40.3794 14.8347 40.3794 15.3341 40.3794 15.5651 40.1355 15.5651 39.6527 15.5651 39.2516 15.3042 38.9007 14.8594 38.9007 14.5947 38.9007 14.5897 38.9159 14.5897 39.1496L14.5897 40.2066 14.5899 40.2066Z" fill="#094684" transform="matrix(1.00805 0 0 1 0.020827 6)"/><path d="M17.9334 39.1396C17.9334 38.9257 17.9288 38.9159 17.7953 38.9159L17.5094 38.9159C17.0399 38.9159 16.9019 38.9718 16.7132 39.3832 16.6771 39.414 16.5705 39.3982 16.5497 39.3476 16.6367 39.0731 16.7132 38.7581 16.7497 38.5801 16.7592 38.5646 16.7789 38.5593 16.8053 38.5593 16.8256 38.5593 16.8462 38.5648 16.8557 38.5801 16.8813 38.7072 16.9532 38.7124 17.3006 38.7124L19.3834 38.7124C19.6335 38.7124 19.71 38.6969 19.7716 38.5801 19.7915 38.5703 19.8122 38.5593 19.8328 38.5593 19.8631 38.5593 19.8887 38.5703 19.8985 38.5846 19.8473 38.7941 19.8072 39.2304 19.822 39.3926 19.7963 39.4338 19.71 39.4436 19.6636 39.4085 19.598 39.0118 19.5005 38.9159 18.9542 38.9159L18.6641 38.9159C18.5301 38.9159 18.5254 38.9257 18.5254 39.1396L18.5254 41.3345C18.5254 41.8736 18.5712 41.8889 18.8115 41.9142L18.9957 41.9345C19.0306 41.9697 19.0265 42.0611 18.9852 42.0817 18.6888 42.0712 18.4587 42.0666 18.2344 42.0666 18.0099 42.0666 17.7702 42.0712 17.4432 42.0817 17.4026 42.0611 17.3966 41.9597 17.4329 41.9345L17.6474 41.9087C17.8878 41.8782 17.9334 41.8736 17.9334 41.3345L17.9334 39.1396 17.9334 39.1396Z" fill="#094684" transform="matrix(1.00805 0 0 1 0.020827 6)"/><path d="M24.4278 41.9346C24.4789 41.9549 24.4741 42.0611 24.4175 42.0817 24.1978 42.0712 23.9988 42.0666 23.7945 42.0666 23.5552 42.0666 23.3351 42.0712 23.1101 42.0817 23.0697 42.0611 23.0492 41.9649 23.101 41.9346L23.2387 41.9087C23.4422 41.8736 23.4574 41.8378 23.4574 41.4928L23.4574 39.4141 23.4474 39.4141C23.3098 39.6935 23.2389 39.846 23.1412 40.0492L22.7019 40.9431C22.5287 41.2993 22.2735 41.8636 22.1806 42.1025 22.1615 42.1225 22.0841 42.1225 22.0492 42.1025 21.9622 41.8273 21.7425 41.3299 21.6245 41.075L21.1704 40.0996C21.0729 39.887 20.9353 39.5657 20.8739 39.4138L20.8638 39.4138C20.8533 39.6623 20.843 40.0593 20.8335 40.2728 20.8228 40.5831 20.8123 41.0346 20.8123 41.4511 20.8123 41.7871 20.818 41.8634 21.0377 41.9038L21.2052 41.9346C21.2415 41.9651 21.2415 42.0611 21.2007 42.0817 21.0119 42.0712 20.8535 42.0666 20.6648 42.0666 20.5019 42.0666 20.3165 42.0712 20.1175 42.0817 20.0724 42.0561 20.0724 41.9597 20.103 41.9346L20.1894 41.924C20.4346 41.8932 20.4709 41.8168 20.506 41.5074 20.5428 41.1871 20.5576 40.8572 20.5826 40.3282 20.6032 39.9826 20.6338 39.561 20.6338 39.2516 20.6338 39.012 20.5576 38.9107 20.3579 38.8749L20.1851 38.8443C20.1538 38.8092 20.1587 38.7124 20.2055 38.6971 20.3583 38.7074 20.4962 38.7126 20.6856 38.7126 20.8643 38.7126 21.0423 38.7126 21.231 38.6971 21.2527 39.0025 21.3798 39.2666 21.5136 39.5411L22.075 40.7145C22.1151 40.8015 22.2484 41.055 22.3142 41.1715 22.3963 41.0244 22.4618 40.8816 22.5803 40.6436L23.0602 39.6684C23.224 39.3321 23.3867 39.0325 23.4732 38.6969 23.6113 38.7072 23.7804 38.7124 23.8922 38.7124 24.1067 38.7124 24.2852 38.7072 24.4283 38.6969 24.484 38.7172 24.494 38.8137 24.4434 38.8441L24.2754 38.8694C24.0508 38.9052 23.9993 38.9862 23.9993 39.2556 23.9993 40.0084 24.0095 40.7604 24.0454 41.512 24.0604 41.8533 24.1163 41.8835 24.2802 41.9081L24.4278 41.9346Z" fill="#094684" transform="matrix(1.00805 0 0 1 0.020827 6)"/><path d="M25.2651 39.4437C25.2651 38.9055 25.2181 38.8851 24.9785 38.8551L24.8972 38.8443C24.8617 38.8094 24.8667 38.7174 24.9075 38.6971 25.1015 38.7074 25.3411 38.7126 25.5664 38.7126L26.541 38.7126C26.8676 38.7126 27.164 38.7074 27.2307 38.6971 27.2513 38.7834 27.2814 39.1849 27.3127 39.4033 27.2914 39.4436 27.1899 39.4542 27.149 39.4238 27.0673 39.1291 26.9908 39.0068 26.8272 38.9614 26.7099 38.9305 26.5558 38.9155 26.4182 38.9155L26.0769 38.9155C25.8569 38.9155 25.8569 38.9255 25.8569 39.2151L25.8569 40.0746C25.8569 40.2062 25.8624 40.2115 25.9794 40.2115L26.2254 40.2115C26.6684 40.2115 26.7457 40.2062 26.7916 39.9876L26.8272 39.8149C26.8676 39.7795 26.965 39.7795 26.9908 39.8195 26.9858 39.9577 26.9753 40.14 26.9753 40.328 26.9753 40.5211 26.9858 40.6992 26.9908 40.8619 26.965 40.8975 26.8678 40.8975 26.8272 40.867L26.7916 40.6639C26.756 40.4501 26.6684 40.4393 26.2254 40.4393L25.9794 40.4393C25.8624 40.4393 25.8569 40.4501 25.8569 40.5769L25.8569 41.2222C25.8569 41.4819 25.8676 41.6644 25.9436 41.7508 26.0055 41.822 26.0919 41.8567 26.5209 41.8629 27.1693 41.8681 27.2811 41.7257 27.4605 41.3141 27.5061 41.2783 27.5928 41.2936 27.6234 41.3443 27.5928 41.5586 27.4808 41.9437 27.4089 42.0812 27.1846 42.0709 26.7455 42.066 26.149 42.066L25.5666 42.066C25.3413 42.066 25.03 42.0707 24.8007 42.0812 24.7599 42.0605 24.7541 41.9692 24.7905 41.9341L24.9789 41.9137C25.2185 41.8884 25.2654 41.8731 25.2654 41.334L25.2651 39.4437 25.2651 39.4437Z" fill="#094684" transform="matrix(1.00805 0 0 1 0.020827 6)"/><path d="M31.0341 41.2023C31.0341 41.355 31.0341 41.9795 31.0498 42.0968 31.0085 42.1527 30.937 42.1732 30.8759 42.168 30.7937 42.0611 30.6463 41.8887 30.2787 41.4713L29.0838 40.1152C28.7565 39.7389 28.5886 39.5511 28.5013 39.474 28.4865 39.474 28.4865 39.5299 28.4865 39.7991L28.4865 40.7917C28.4865 41.1713 28.4911 41.6397 28.5778 41.7922 28.6246 41.8686 28.7106 41.9037 28.8387 41.9185L28.951 41.9343C28.997 41.9696 28.9909 42.0666 28.9404 42.0815 28.7526 42.071 28.5527 42.0664 28.3583 42.0664 28.1437 42.0664 28.0061 42.071 27.8284 42.0815 27.7868 42.0559 27.7768 41.9696 27.8182 41.9343L27.9295 41.9085C28.0264 41.8887 28.1189 41.8734 28.1549 41.7924 28.2209 41.6343 28.2209 41.1926 28.2209 40.7919L28.2209 39.5863C28.2209 39.1904 28.2261 39.1082 28.0525 38.9614 27.9958 38.9157 27.8537 38.8746 27.7821 38.8593L27.7056 38.844C27.6691 38.8133 27.675 38.712 27.7255 38.6969 27.9197 38.717 28.2001 38.7122 28.3275 38.7122 28.4354 38.7122 28.557 38.7071 28.6798 38.6969 28.7675 38.9155 29.3234 39.556 29.5023 39.7489L30.0123 40.2974C30.2266 40.5308 30.702 41.0702 30.7529 41.1006 30.768 41.0853 30.768 41.0598 30.768 40.9787L30.768 39.9876C30.768 39.6068 30.7632 39.1393 30.6707 38.9862 30.6248 38.9102 30.5432 38.8746 30.4158 38.8593L30.2992 38.844C30.2522 38.8091 30.2579 38.712 30.309 38.6969 30.5078 38.7071 30.6965 38.7122 30.8955 38.7122 31.1155 38.7122 31.2483 38.7071 31.4315 38.6969 31.4731 38.722 31.4832 38.8087 31.4418 38.844L31.3252 38.8692C31.228 38.8901 31.1408 38.905 31.1053 38.986 31.0338 39.1439 31.0338 39.5861 31.0338 39.9874L31.0341 41.2023 31.0341 41.2023Z" fill="#094684" transform="matrix(1.00805 0 0 1 0.020827 6)"/><path d="M33.0603 39.1396C33.0603 38.9257 33.055 38.9159 32.9223 38.9159L32.6372 38.9159C32.1671 38.9159 32.0288 38.9718 31.8403 39.3832 31.8049 39.414 31.6974 39.3982 31.6767 39.3476 31.7643 39.0731 31.8403 38.7581 31.8759 38.5801 31.8867 38.5646 31.9063 38.5593 31.9323 38.5593 31.9524 38.5593 31.9733 38.5648 31.9839 38.5801 32.009 38.7072 32.0806 38.7124 32.4272 38.7124L34.5108 38.7124C34.761 38.7124 34.8374 38.6969 34.899 38.5801 34.9193 38.5703 34.9392 38.5593 34.9595 38.5593 34.99 38.5593 35.0161 38.5703 35.0266 38.5846 34.9757 38.7941 34.9342 39.2304 34.9497 39.3926 34.9243 39.4338 34.8372 39.4436 34.7916 39.4085 34.7247 39.0118 34.6277 38.9159 34.0821 38.9159L33.7906 38.9159C33.6582 38.9159 33.653 38.9257 33.653 39.1396L33.653 41.3345C33.653 41.8736 33.6996 41.8889 33.9392 41.9142L34.1236 41.9345C34.158 41.9697 34.1532 42.0611 34.1122 42.0817 33.8164 42.0712 33.5864 42.0666 33.3615 42.0666 33.137 42.0666 32.8974 42.0712 32.571 42.0817 32.53 42.0611 32.5243 41.9597 32.5611 41.9345L32.7748 41.9087C33.0145 41.8782 33.0605 41.8736 33.0605 41.3345L33.0605 39.1396 33.0603 39.1396Z" fill="#094684" transform="matrix(1.00805 0 0 1 0.020827 6)"/><path d="M46.1536 40.3995C46.1536 41.3999 45.3884 42.1476 44.3566 42.1476 43.2028 42.1476 42.5387 41.34 42.5387 40.4351 42.5387 39.3983 43.2955 38.6314 44.3671 38.6314 45.547 38.6314 46.1536 39.4743 46.1536 40.3995ZM43.2334 40.2876C43.2334 40.9892 43.5347 41.9443 44.4085 41.9443 44.99 41.9443 45.4594 41.512 45.4594 40.4912 45.4594 39.7239 45.1129 38.8343 44.3005 38.8343 43.79 38.8347 43.2334 39.2053 43.2334 40.2876Z" fill="#094684" transform="matrix(1.00805 0 0 1 0.020827 6)"/><path d="M48.2316 38.7124C48.558 38.7124 48.8439 38.7072 48.9521 38.6969 48.9521 38.8091 48.9521 39.1904 48.9615 39.4295 48.9416 39.4697 48.8495 39.48 48.7986 39.4494 48.7476 39.1549 48.666 39.0068 48.4717 38.9558 48.3344 38.9208 48.2063 38.9159 48.043 38.9159L47.7823 38.9159C47.5683 38.9159 47.5683 38.9257 47.5683 39.2107L47.5683 40.12C47.5683 40.2475 47.573 40.2566 47.6903 40.2566L47.9923 40.2566C48.4355 40.2566 48.5128 40.2471 48.5632 40.0337L48.6041 39.861C48.6356 39.8257 48.7316 39.8257 48.7577 39.8656 48.7525 39.9983 48.7421 40.1866 48.7421 40.3742 48.7421 40.5626 48.7524 40.7446 48.7577 40.9021 48.7316 40.9429 48.6356 40.9429 48.6041 40.908L48.5632 40.7091C48.5178 40.4965 48.4355 40.4859 47.9923 40.4859L47.6903 40.4859C47.5731 40.4859 47.5683 40.4965 47.5683 40.6228L47.5683 41.3342C47.5683 41.8734 47.6132 41.878 47.854 41.9081L48.0682 41.9343C48.1041 41.9692 48.0986 42.0607 48.0587 42.0815 47.7319 42.071 47.5024 42.0662 47.2768 42.0662 47.0523 42.0662 46.823 42.0707 46.5883 42.0815 46.5473 42.0607 46.542 41.9696 46.5774 41.9343L46.6899 41.9183C46.9299 41.8885 46.9754 41.8732 46.9754 41.3342L46.9754 39.4436C46.9754 38.9052 46.9297 38.8899 46.6899 38.8548L46.6234 38.844C46.5881 38.8091 46.5929 38.717 46.634 38.6969 46.8129 38.7071 47.0423 38.7122 47.2668 38.7122L48.2316 38.7124 48.2316 38.7124Z" fill="#094684" transform="matrix(1.00805 0 0 1 0.020827 6)"/><path d="M50.9469 39.4437C50.9469 38.9055 50.9015 38.8851 50.6617 38.8551L50.5799 38.8443C50.5444 38.8094 50.5491 38.7174 50.5902 38.6971 50.7844 38.7074 51.024 38.7126 51.2484 38.7126L52.2237 38.7126C52.5503 38.7126 52.8465 38.7074 52.9125 38.6971 52.9337 38.7834 52.9643 39.1849 52.9951 39.4033 52.9739 39.4436 52.873 39.4542 52.8315 39.4238 52.7498 39.1291 52.6736 39.0068 52.5092 38.9614 52.3922 38.9305 52.2397 38.9155 52.1012 38.9155L51.7593 38.9155C51.5401 38.9155 51.5401 38.9255 51.5401 39.2151L51.5401 40.0746C51.5401 40.2062 51.5455 40.2115 51.6628 40.2115L51.9075 40.2115C52.352 40.2115 52.4282 40.2062 52.4743 39.9876L52.5092 39.8149C52.5503 39.7795 52.6475 39.7795 52.6738 39.8195 52.668 39.9577 52.6581 40.14 52.6581 40.328 52.6581 40.5211 52.668 40.6992 52.6738 40.8619 52.6475 40.8975 52.5505 40.8975 52.5092 40.867L52.4743 40.6639C52.4383 40.4501 52.352 40.4393 51.9075 40.4393L51.6628 40.4393C51.5455 40.4393 51.5401 40.4501 51.5401 40.5769L51.5401 41.2222C51.5401 41.4819 51.5498 41.6644 51.6272 41.7508 51.6881 41.822 51.7741 41.8567 52.2035 41.8629 52.8523 41.8681 52.9645 41.7257 53.143 41.3141 53.1893 41.2783 53.2758 41.2936 53.3071 41.3443 53.2758 41.5586 53.1637 41.9437 53.0924 42.0812 52.8676 42.0709 52.4284 42.066 51.831 42.066L51.2488 42.066C51.0243 42.066 50.7127 42.0707 50.4832 42.0812 50.4426 42.0605 50.4364 41.9692 50.4734 41.9341L50.6621 41.9137C50.9022 41.8884 50.9474 41.8731 50.9474 41.334L50.9474 39.4434 50.9469 39.4434 50.9469 39.4437Z" fill="#094684" transform="matrix(1.00805 0 0 1 0.020827 6)"/><path d="M53.9086 39.4743C53.9086 38.9864 53.9039 38.9159 53.6638 38.8949L53.556 38.8851C53.5207 38.8598 53.5207 38.7681 53.5611 38.7439 53.9294 38.7126 54.3372 38.6972 54.8374 38.6972 55.3236 38.6972 55.67 38.7373 56.0429 38.8699 56.6556 39.0935 57.0899 39.6324 57.0899 40.389 57.0899 40.9537 56.8083 41.5323 56.1755 41.854 55.8131 42.0365 55.374 42.0973 54.9096 42.0973 54.5981 42.0973 54.3582 42.0671 54.1693 42.0671 53.9745 42.0671 53.7448 42.0717 53.5207 42.082 53.4801 42.0616 53.4745 41.9702 53.5106 41.9352L53.6226 41.9192C53.8627 41.8892 53.9084 41.8739 53.9084 41.3349L53.9086 39.4743 53.9086 39.4743ZM54.5008 41.1362C54.5008 41.6292 54.5366 41.8932 55.0784 41.8932 55.9867 41.8932 56.3947 41.2533 56.3947 40.3944 56.3947 39.3882 55.8078 38.9006 54.9554 38.9006 54.7411 38.9006 54.5775 38.9411 54.5415 38.9716 54.5065 39.0024 54.5008 39.1083 54.5008 39.3476L54.5008 41.1362 54.5008 41.1362Z" fill="#094684" transform="matrix(1.00805 0 0 1 0.020827 6)"/><path d="M57.8808 39.4437C57.8808 38.9055 57.8345 38.8949 57.5945 38.8551L57.5077 38.8393C57.4726 38.8041 57.4776 38.7174 57.5182 38.6971 57.7222 38.7074 57.9518 38.7126 58.1769 38.7126 58.4067 38.7126 58.6363 38.7074 58.8613 38.6971 58.9023 38.7174 58.9071 38.8041 58.8713 38.8393L58.7592 38.8551C58.5189 38.8851 58.4728 38.9055 58.4728 39.4437L58.4728 40.608C58.4728 41.3092 58.6874 41.8987 59.3973 41.8987 60.0665 41.8987 60.3414 41.3958 60.3414 40.6231L60.3414 39.9883C60.3414 39.6075 60.3371 39.1338 60.2452 38.9867 60.1986 38.9109 60.1171 38.8751 59.9902 38.8555L59.8871 38.8397C59.8409 38.8042 59.8464 38.7129 59.8971 38.6972 60.071 38.7076 60.2652 38.7129 60.4644 38.7129 60.6788 38.7129 60.8168 38.7076 61.0055 38.6972 61.0469 38.7224 61.0567 38.8042 61.016 38.8397L60.9037 38.8648C60.8065 38.8852 60.7146 38.9055 60.6788 38.9866 60.6073 39.14 60.6073 39.5867 60.6073 39.9881L60.6073 40.5927C60.6073 41.0554 60.5357 41.4826 60.2693 41.7669 60.005 42.0516 59.6217 42.1477 59.2688 42.1477 58.7896 42.1477 58.4532 42.0469 58.2174 41.8227 57.9883 41.6042 57.8811 41.2485 57.8811 40.7346L57.8808 39.4437 57.8808 39.4437Z" fill="#094684" transform="matrix(1.00805 0 0 1 0.020827 6)"/><path d="M64.4663 39.5658C64.4298 39.607 64.3388 39.6118 64.3027 39.5767 64.216 39.2557 63.9869 38.8343 63.3123 38.8343 62.6644 38.8343 62.0105 39.2919 62.0105 40.3335 62.0105 41.4164 62.6895 41.9443 63.3493 41.9443 63.9923 41.9443 64.2724 41.5175 64.4159 41.1871 64.4615 41.1414 64.543 41.1613 64.5681 41.2076 64.5327 41.5478 64.3953 41.8841 64.324 41.9792 64.2628 41.9898 64.2018 42.0101 64.1452 42.0258 64.0327 42.0609 63.6808 42.1474 63.3493 42.1474 62.8435 42.1474 62.4088 42.0466 62.0418 41.807 61.6276 41.5377 61.3158 41.0751 61.3158 40.41 61.3158 39.8152 61.5812 39.3529 61.9597 39.0633 62.3373 38.7784 62.8526 38.631 63.3684 38.631 63.66 38.631 64.0115 38.6825 64.2522 38.7433 64.3134 38.7578 64.349 38.7631 64.3951 38.7731 64.4045 38.8902 64.4161 39.1905 64.4663 39.5658Z" fill="#094684" transform="matrix(1.00805 0 0 1 0.020827 6)"/><path d="M65.7069 40.8216C65.575 40.8216 65.5793 40.8216 65.5339 40.9589L65.3244 41.5688C65.2224 41.8686 65.2436 41.8782 65.4314 41.9083L65.5791 41.9345C65.6156 41.9694 65.6103 42.0609 65.5688 42.0817 65.4061 42.0712 65.2372 42.0712 65.0282 42.0664 64.8597 42.0664 64.7018 42.0709 64.5227 42.0817 64.4876 42.0559 64.4818 41.9792 64.5175 41.9345L64.6711 41.9083C64.8185 41.8837 64.8746 41.8428 64.9517 41.6753 65.0127 41.5433 65.0948 41.3299 65.2016 41.0552L65.9018 39.2456C65.962 39.0836 66.0139 38.962 65.9985 38.8749 66.1775 38.8397 66.3452 38.6314 66.3554 38.6314 66.3963 38.6314 66.4224 38.6467 66.4421 38.6718 66.5246 38.9009 66.5905 39.1396 66.672 39.3682L67.4073 41.4979C67.525 41.838 67.5501 41.8689 67.8107 41.9188L67.8872 41.9348C67.928 41.9697 67.928 42.0562 67.8918 42.082 67.6827 42.0715 67.4938 42.0667 67.229 42.0667 67.01 42.0667 66.7847 42.0765 66.6056 42.082 66.5649 42.0562 66.5599 41.9649 66.5903 41.9348L66.7028 41.9188C66.8858 41.8935 66.9118 41.8636 66.8358 41.65L66.5951 40.9589C66.5496 40.8216 66.5289 40.8216 66.3863 40.8216L65.7069 40.8216 65.7069 40.8216ZM66.3198 40.5923C66.4629 40.5923 66.4825 40.5831 66.4417 40.4609L66.2279 39.8505C66.1362 39.5808 66.1101 39.4845 66.085 39.4492L66.0747 39.4492C66.0542 39.4843 66.0083 39.6113 65.9216 39.8505L65.7064 40.4453C65.656 40.5922 65.666 40.5922 65.7879 40.5922L66.3198 40.5922 66.3198 40.5923Z" fill="#094684" transform="matrix(1.00805 0 0 1 0.020827 6)"/><path d="M68.8872 39.1396C68.8872 38.9257 68.8824 38.9159 68.7501 38.9159L68.4637 38.9159C67.9944 38.9159 67.8566 38.9718 67.667 39.3832 67.6309 39.414 67.525 39.3982 67.5033 39.3476 67.5912 39.0731 67.667 38.7581 67.703 38.5801 67.7138 38.5646 67.7339 38.5593 67.7592 38.5593 67.7797 38.5593 67.8003 38.5648 67.8103 38.5801 67.8363 38.7072 67.9072 38.7124 68.2544 38.7124L70.3379 38.7124C70.5881 38.7124 70.6643 38.6969 70.7262 38.5801 70.7462 38.5703 70.7666 38.5593 70.7871 38.5593 70.8174 38.5593 70.8434 38.5703 70.853 38.5846 70.8024 38.7941 70.7613 39.2304 70.7766 39.3926 70.7512 39.4338 70.6645 39.4436 70.6182 39.4085 70.5513 39.0118 70.4552 38.9159 69.9089 38.9159L69.6177 38.9159C69.4853 38.9159 69.4801 38.9257 69.4801 39.1396L69.4801 41.3345C69.4801 41.8736 69.5265 41.8889 69.766 41.9142L69.9495 41.9345C69.9859 41.9697 69.9801 42.0611 69.9397 42.0817 69.643 42.0712 69.414 42.0666 69.1884 42.0666 68.9648 42.0666 68.7247 42.0712 68.3979 42.0817 68.3568 42.0611 68.3518 41.9597 68.3877 41.9345L68.6024 41.9087C68.8423 41.8782 68.8872 41.8736 68.8872 41.3345L68.8872 39.1396 68.8872 39.1396Z" fill="#094684" transform="matrix(1.00805 0 0 1 0.020827 6)"/><path d="M72.1091 41.3344C72.1091 41.8734 72.1549 41.8887 72.395 41.9185L72.5075 41.9343C72.5425 41.9696 72.5376 42.0609 72.4968 42.0815 72.2727 42.071 72.042 42.0664 71.8177 42.0664 71.5931 42.0664 71.3532 42.071 71.1287 42.0815 71.0874 42.0609 71.0824 41.9696 71.1179 41.9343L71.2302 41.9185C71.4701 41.8885 71.5164 41.8732 71.5164 41.3344L71.5164 39.4436C71.5164 38.9054 71.4698 38.8902 71.2302 38.8594L71.1179 38.8441C71.0826 38.8092 71.0873 38.7172 71.1287 38.6971 71.3532 38.7072 71.583 38.7124 71.8177 38.7124 72.0422 38.7124 72.2729 38.7072 72.4968 38.6971 72.5374 38.7172 72.5425 38.8089 72.5075 38.8441L72.395 38.8594C72.1547 38.8904 72.1091 38.9055 72.1091 39.4436L72.1091 41.3344Z" fill="#094684" transform="matrix(1.00805 0 0 1 0.020827 6)"/><path d="M76.5452 40.3995C76.5452 41.3999 75.7798 42.1476 74.7483 42.1476 73.595 42.1476 72.9309 41.34 72.9309 40.4351 72.9309 39.3983 73.687 38.6314 74.7591 38.6314 75.9382 38.6314 76.5452 39.4743 76.5452 40.3995ZM73.6253 40.2876C73.6253 40.9892 73.9266 41.9443 74.8 41.9443 75.3816 41.9443 75.8515 41.512 75.8515 40.4912 75.8515 39.7239 75.5039 38.8343 74.692 38.8343 74.1812 38.8347 73.6253 39.2053 73.6253 40.2876Z" fill="#094684" transform="matrix(1.00805 0 0 1 0.020827 6)"/><path d="M80.1756 41.2023C80.1756 41.355 80.1756 41.9795 80.1912 42.0968 80.1499 42.1527 80.0786 42.1732 80.0178 42.168 79.9356 42.0611 79.7875 41.8887 79.4195 41.4713L78.2247 40.1152C77.8981 39.7389 77.7299 39.5511 77.6432 39.474 77.6279 39.474 77.6279 39.5299 77.6279 39.7991L77.6279 40.7917C77.6279 41.1713 77.6325 41.6397 77.7203 41.7922 77.7657 41.8686 77.8524 41.9037 77.98 41.9185L78.0923 41.9343C78.1379 41.9696 78.1334 42.0666 78.0815 42.0815 77.8933 42.071 77.6933 42.0664 77.5003 42.0664 77.2851 42.0664 77.1477 42.071 76.969 42.0815 76.9282 42.0559 76.9174 41.9696 76.9583 41.9343L77.0713 41.9085C77.1681 41.8887 77.26 41.8734 77.2958 41.7924 77.3616 41.6343 77.3616 41.1926 77.3616 40.7919L77.3616 39.5863C77.3616 39.1904 77.3673 39.1082 77.1943 38.9614 77.1372 38.9157 76.9941 38.8746 76.9224 38.8593L76.8468 38.844C76.8106 38.8133 76.8154 38.712 76.8658 38.6969 77.061 38.717 77.3413 38.7122 77.4693 38.7122 77.5756 38.7122 77.6982 38.7071 77.8209 38.6969 77.9079 38.9155 78.4649 39.556 78.643 39.7489L79.1544 40.2974C79.3675 40.5308 79.8438 41.0702 79.8945 41.1006 79.9095 41.0853 79.9095 41.0598 79.9095 40.9787L79.9095 39.9876C79.9095 39.6068 79.9052 39.1393 79.8126 38.9862 79.7669 38.9102 79.6852 38.8746 79.5577 38.8593L79.4401 38.844C79.3937 38.8091 79.3992 38.712 79.4497 38.6969 79.6489 38.7071 79.8379 38.7122 80.0371 38.7122 80.2564 38.7122 80.3897 38.7071 80.5732 38.6969 80.6142 38.722 80.6248 38.8087 80.5841 38.844L80.4678 38.8692C80.3691 38.8901 80.2827 38.905 80.2475 38.986 80.1754 39.1439 80.1754 39.5861 80.1754 39.9874L80.1754 41.2021 80.1756 41.2021 80.1756 41.2023Z" fill="#094684" transform="matrix(1.00805 0 0 1 0.020827 6)"/></g></svg>